# xmcd
#
# Track frame offsets:
#	150
#	34022
#	46062
#	73010
#	79269
#	105594
#	113267
#	137999
#	147030
#	166029
#	176333
#	199080
#	206796
#	244938
#	258781
#	290807
#	298591
#	318813
#	332926
#
# Disc length: 4532 seconds
#
# Revision: 1
# Processed by: cddbd v1.5.2PL0 Copyright (c) Steve Scherf et al.
# Submitted via: audiograbber 1.83.01
#
DISCID=1311b213
DTITLE=Mick Pluto - Mick Pluto Box Waves I
DYEAR=2012
DGENRE=Electronic
TTITLE0=Aufbruchstimmung
TTITLE1=Samnus Kurzgeschichte
TTITLE2=Degenhardt
TTITLE3=Rasten ohne Hasten
TTITLE4=Kraterwanderung der Kröten
TTITLE5=Basel Engwicht
TTITLE6=Der Schattenschall
TTITLE7=Sumpfspuk bei Morgendämmerung
TTITLE8=Spaziergang des Zwölfbeinigen zum Hügel
TTITLE9=Nebel mit Tentakeln
TTITLE10=Garten der Genesung
TTITLE11=Weingeist
TTITLE12=Lokimotive des Altair
TTITLE13=Eusebius in Gedanken versunken
TTITLE14=Leuchterscheinungen
TTITLE15=Ursuppenkaspar
TTITLE16=Herr Steinweg reflektiert sein Leben
TTITLE17=Das krustige Monster aus Japan
TTITLE18=Doromirs Reigen
EXTD=
EXTT0=
EXTT1=
EXTT2=
EXTT3=
EXTT4=
EXTT5=
EXTT6=
EXTT7=
EXTT8=
EXTT9=
EXTT10=
EXTT11=
EXTT12=
EXTT13=
EXTT14=
EXTT15=
EXTT16=
EXTT17=
EXTT18=
PLAYORDER=
